<?xml version="1.0" standalone="no"?>
<!DOCTYPE svg PUBLIC "-//W3C//DTD SVG 20010904//EN"
 "http://www.w3.org/TR/2001/REC-SVG-20010904/DTD/svg10.dtd">
<svg version="1.0" xmlns="http://www.w3.org/2000/svg"
 width="182.000000pt" height="182.000000pt" viewBox="0 0 182.000000 182.000000"
 preserveAspectRatio="xMidYMid meet">
<metadata>
Created by potrace 1.14, written by Peter Selinger 2001-2017
</metadata>
<g transform="translate(0.000000,182.000000) scale(0.100000,-0.100000)"
fill="#000000" stroke="none">
<path d="M0 910 l0 -910 910 0 910 0 0 910 0 910 -910 0 -910 0 0 -910z m462
144 l3 -195 183 195 184 196 129 0 c71 0 129 -3 129 -8 0 -4 -81 -88 -180
-187 -99 -99 -180 -183 -180 -186 0 -3 90 -133 200 -288 110 -156 200 -284
200 -287 0 -2 -60 -4 -134 -4 l-133 0 -134 201 c-74 111 -137 207 -141 213 -5
7 -29 -11 -68 -49 l-60 -59 0 -153 0 -153 -105 0 -105 0 0 480 0 480 105 0
105 0 2 -196z m926 -661 l3 -103 -111 0 -110 0 0 105 0 106 108 -3 107 -3 3
-102z"/>
</g>
</svg>
